<svg xmlns="http://www.w3.org/2000/svg" xmlns:xlink="http://www.w3.org/1999/xlink" width="290" height="240" viewBox="0 0 290 240">
    <defs>
        <path id="b" d="M126.973 222.583a88.253 88.253 0 0 1-14.71 5.735c-46.561 13.52-95.257-13.3-108.764-59.903C-8.273 127.8 10.567 85.561 46.425 66.428c-2.978-11.445-6.69-28.024-6.099-27.92.601.107 5.04 2.494 13.316 7.163 0 0 21.68-38.864 57.963-44.557 13.554-2.126 27.508 1.061 41.918 8.94A88.295 88.295 0 0 1 167.661 4.6c46.56-13.52 95.256 13.299 108.763 59.903 11.745 40.518-6.977 82.651-42.667 101.848 2.961 11.43 6.59 27.657 6.003 27.553-.6-.106-5.039-2.493-13.315-7.162 0 0-21.68 38.864-57.963 44.557-13.425 2.106-27.244-1.001-41.509-8.717zm12.207-7.376c8.698 2.25 18.661 2.441 26.414.792 22.863-4.863 34.072-30.435 37.464-39.826a87.134 87.134 0 0 1-32.797-2.081c-5.977 16.331-16.73 30.752-31.08 41.115zm-29.517-156.38c6.054-16.543 17.01-31.125 31.64-41.516-8.79-2.348-18.94-2.57-26.81-.896-23.289 4.954-34.486 31.394-37.645 40.333a87.133 87.133 0 0 1 32.815 2.079z"/>
        <filter id="a" width="104.6%" height="105.6%" x="-1.4%" y="-1.7%" filterUnits="objectBoundingBox">
            <feMorphology in="SourceAlpha" operator="dilate" radius="1.5" result="shadowSpreadOuter1"/>
            <feOffset dx="5" dy="5" in="shadowSpreadOuter1" result="shadowOffsetOuter1"/>
            <feComposite in="shadowOffsetOuter1" in2="SourceAlpha" operator="out" result="shadowOffsetOuter1"/>
            <feColorMatrix in="shadowOffsetOuter1" values="0 0 0 0 0 0 0 0 0 0 0 0 0 0 0 0 0 0 0.05 0"/>
        </filter>
        <path id="d" d="M61.491 3.394C106.69-9.71 153.957 16.282 167.07 61.446c13.112 45.164-12.898 92.397-58.095 105.5-45.197 13.101-92.466-12.889-105.578-58.053C-9.716 63.73 16.294 16.496 61.491 3.393"/>
        <filter id="c" width="105.9%" height="104.7%" x="-1.5%" y="-3.2%" filterUnits="objectBoundingBox">
            <feOffset dx="5" dy="-3" in="SourceAlpha" result="shadowOffsetOuter1"/>
            <feColorMatrix in="shadowOffsetOuter1" values="0 0 0 0 0 0 0 0 0 0 0 0 0 0 0 0 0 0 0.05 0"/>
        </filter>
    </defs>
    <g fill="none" fill-rule="evenodd">
        <path fill="#FFF" d="M171 10.225c44.009-12.78 90.035 12.57 102.801 56.618 12.768 44.05-12.558 90.117-56.567 102.896-44.008 12.778-90.035-12.57-102.802-56.62C101.665 69.071 126.99 23.004 171 10.225"/>
        <g fill-rule="nonzero" transform="translate(2 1)">
            <use fill="#000" filter="url(#a)" xlink:href="#b"/>
            <use fill="#FFF" fill-rule="evenodd" stroke="#414042" stroke-width="3" xlink:href="#b"/>
        </g>
        <path fill="#FED445" d="M274.314 90.022c0 44.31-35.888 80.23-80.157 80.23-44.268 0-80.157-35.92-80.157-80.23s35.889-80.23 80.157-80.23c44.27 0 80.157 35.92 80.157 80.23"/>
        <path stroke="#414042" stroke-width="2" d="M274.314 90.022c0 44.31-35.888 80.23-80.157 80.23-44.268 0-80.157-35.92-80.157-80.23s35.889-80.23 80.157-80.23c44.27 0 80.157 35.92 80.157 80.23z"/>
        <path stroke="#414042" stroke-opacity=".5" stroke-width="2" d="M131.569 139.479c17.72-12.456 39.417-19.783 62.854-19.783 23.203 0 44.7 7.183 62.322 19.41M257.843 41.666c-17.988 13.126-40.2 20.88-64.234 20.88-24.035 0-46.248-7.754-64.236-20.882"/>
        <path stroke="#414042" stroke-opacity=".5" stroke-width="2" d="M194.157 170.252c-25.903-17.757-42.824-47.074-42.824-80.23 0-33.158 16.92-62.472 42.822-80.23M194.157 170.252V9.792M274.314 90.022H114M194.186 9.792c25.886 17.754 42.794 47.068 42.794 80.221 0 33.165-16.92 62.486-42.823 80.239"/>
        <path fill="#000" stroke="#000" stroke-width="3" d="M237.92 109.805h-82.036c-8.541 0-15.531-6.923-15.531-15.387 0-8.462 6.99-15.386 15.531-15.386h82.036c8.541 0 15.531 6.924 15.531 15.386 0 8.464-6.99 15.387-15.531 15.387z" opacity=".05"/>
        <path stroke="#414042" stroke-width="3" d="M234.626 105.408H152.59c-8.541 0-15.531-6.923-15.531-15.386 0-8.462 6.99-15.387 15.531-15.387h82.036c8.541 0 15.53 6.925 15.53 15.387 0 8.463-6.989 15.386-15.53 15.386z"/>
        <path fill="#D71920" d="M152.59 105.408c-8.541 0-15.531-6.923-15.531-15.386 0-8.462 6.99-15.387 15.531-15.387h82.036c8.541 0 15.53 6.925 15.53 15.387 0 8.463-6.989 15.386-15.53 15.386H152.59z"/>
        <path fill="#FFF" d="M166.457 93.934a2.299 2.299 0 0 1 1.428-2.138c.285-.121.597-.182.935-.182.329 0 .638.06.928.182.29.12.541.285.754.493a2.299 2.299 0 0 1 .681 1.646 2.283 2.283 0 0 1-.68 1.645c-.214.208-.465.37-.755.486-.29.116-.6.174-.928.174-.338 0-.65-.058-.935-.174a2.268 2.268 0 0 1-1.428-2.132zm18.313-9.512a1.625 1.625 0 0 1-.348.356c-.116.082-.28.123-.493.123-.193 0-.38-.056-.558-.167a16.5 16.5 0 0 0-.616-.362 5.148 5.148 0 0 0-.827-.363c-.319-.111-.715-.167-1.189-.167-.6 0-1.119.11-1.559.327-.44.217-.804.529-1.094.935-.29.406-.506.899-.646 1.479-.14.58-.21 1.232-.21 1.957 0 1.528.307 2.697.92 3.51.615.811 1.453 1.217 2.517 1.217.367 0 .683-.031.95-.094.265-.063.497-.142.695-.24.198-.096.37-.202.515-.318.145-.116.283-.222.413-.32.13-.096.261-.176.392-.238.13-.063.278-.095.442-.095.31 0 .551.116.725.348l1.146 1.45a6.828 6.828 0 0 1-2.864 1.994 7.57 7.57 0 0 1-1.573.392c-.532.072-1.059.108-1.58.108a6.704 6.704 0 0 1-2.61-.514 6.24 6.24 0 0 1-2.161-1.501c-.62-.657-1.11-1.465-1.472-2.422-.363-.957-.544-2.049-.544-3.277 0-1.092.16-2.107.479-3.045a6.917 6.917 0 0 1 1.406-2.436c.619-.686 1.385-1.225 2.298-1.616.914-.392 1.97-.588 3.169-.588 1.14 0 2.14.184 3.001.551a7.22 7.22 0 0 1 2.32 1.595l-1.044 1.421zm9.933-3.567c1.12 0 2.14.18 3.06.537a6.72 6.72 0 0 1 2.363 1.53c.657.662 1.164 1.467 1.522 2.414.358.947.537 2.015.537 3.204 0 1.19-.18 2.26-.537 3.212-.358.952-.865 1.762-1.522 2.429a6.671 6.671 0 0 1-2.364 1.537c-.918.358-1.938.536-3.06.536-1.13 0-2.158-.178-3.08-.536a6.658 6.658 0 0 1-2.371-1.537c-.658-.667-1.168-1.477-1.53-2.429-.363-.952-.544-2.023-.544-3.212s.181-2.257.544-3.204c.362-.947.872-1.752 1.53-2.414a6.707 6.707 0 0 1 2.37-1.53c.923-.358 1.95-.537 3.082-.537zm0 12.398c1.14 0 1.986-.394 2.537-1.182.551-.788.827-1.96.827-3.516 0-1.547-.276-2.714-.827-3.502-.55-.788-1.397-1.182-2.537-1.182-1.17 0-2.03.394-2.581 1.182-.551.788-.827 1.955-.827 3.502 0 1.556.276 2.728.827 3.516.55.788 1.41 1.182 2.58 1.182zm10.005 2.784v-14.95h2.465c.502 0 .836.232 1 .696l.232.972c.261-.27.53-.522.805-.754.275-.232.573-.433.892-.602.319-.169.664-.302 1.036-.399a4.806 4.806 0 0 1 1.211-.145c.918 0 1.677.244 2.277.733.599.488 1.053 1.138 1.363 1.95a4.622 4.622 0 0 1 2.051-2.06 5.54 5.54 0 0 1 1.334-.47c.47-.102.94-.153 1.414-.153.841 0 1.585.126 2.233.377a4.206 4.206 0 0 1 1.631 1.11c.44.488.776 1.085 1.008 1.79.232.706.348 1.508.348 2.407v9.498h-4.002v-9.498c0-1.75-.75-2.624-2.247-2.624-.339 0-.65.055-.936.167a2.123 2.123 0 0 0-.754.5 2.296 2.296 0 0 0-.507.826c-.121.329-.181.706-.181 1.131v9.498h-4.002v-9.498c0-.947-.187-1.621-.559-2.022-.372-.402-.92-.602-1.645-.602-.464 0-.902.109-1.313.326-.41.218-.795.52-1.152.906v10.89h-4.002z"/>
        <g>
            <g transform="translate(4.99 58.751)">
                <use fill="#000" filter="url(#c)" xlink:href="#d"/>
                <use fill="#FFF" xlink:href="#d"/>
            </g>
            <path fill="#FED445" d="M169.785 144.382c0 44.261-35.907 80.142-80.2 80.142-44.293 0-80.201-35.88-80.201-80.142 0-44.261 35.908-80.142 80.2-80.142 44.294 0 80.201 35.88 80.201 80.142"/>
            <path stroke="#414042" stroke-width="2" d="M169.785 144.382c0 44.261-35.907 80.142-80.2 80.142-44.293 0-80.201-35.88-80.201-80.142 0-44.261 35.908-80.142 80.2-80.142 44.294 0 80.201 35.88 80.201 80.142z"/>
            <path stroke="#414042" stroke-opacity=".5" stroke-width="2" d="M26.962 193.784c17.73-12.441 39.44-19.76 62.889-19.76 23.216 0 44.725 7.175 62.356 19.39M153.306 96.079c-17.999 13.112-40.222 20.857-64.27 20.857-24.048 0-46.273-7.745-64.271-20.859"/>
            <path stroke="#414042" stroke-opacity=".5" stroke-width="2" d="M89.585 224.524c-25.917-17.737-42.847-47.022-42.847-80.142 0-33.122 16.928-62.403 42.845-80.142M89.585 224.524V64.24M169.785 144.382H9.384M89.613 64.24c25.9 17.735 42.819 47.016 42.819 80.133 0 33.129-16.93 62.418-42.847 80.15"/>
            <path fill="#000" stroke="#000" stroke-width="3" d="M133.372 164.143H51.29c-8.546 0-15.54-6.916-15.54-15.37 0-8.452 6.994-15.37 15.54-15.37h82.08c8.547 0 15.54 6.918 15.54 15.37 0 8.454-6.993 15.37-15.54 15.37z" opacity=".05"/>
            <path stroke="#414042" stroke-width="3" d="M130.076 159.752H47.995c-8.546 0-15.54-6.916-15.54-15.37 0-8.453 6.994-15.37 15.54-15.37h82.08c8.547 0 15.54 6.917 15.54 15.37 0 8.454-6.993 15.37-15.54 15.37z"/>
            <path fill="#D71920" d="M47.995 159.752c-8.546 0-15.54-6.916-15.54-15.37 0-8.453 6.994-15.37 15.54-15.37h82.08c8.547 0 15.54 6.917 15.54 15.37 0 8.454-6.993 15.37-15.54 15.37h-82.08z"/>
            <path fill="#FFF" d="M61.884 148.284a2.299 2.299 0 0 1 1.428-2.138c.285-.121.597-.182.935-.182.329 0 .638.06.928.182.29.12.542.285.754.493a2.299 2.299 0 0 1 .681 1.646 2.283 2.283 0 0 1-.68 1.645c-.213.208-.465.37-.755.486-.29.116-.599.174-.928.174-.338 0-.65-.058-.935-.174a2.268 2.268 0 0 1-1.428-2.131zm18.313-9.512a1.625 1.625 0 0 1-.348.356c-.116.082-.28.123-.493.123-.193 0-.38-.056-.558-.167a16.5 16.5 0 0 0-.616-.362 5.148 5.148 0 0 0-.827-.363c-.319-.11-.715-.167-1.189-.167-.599 0-1.119.11-1.558.327-.44.217-.805.529-1.095.935-.29.406-.505.899-.645 1.479-.14.58-.21 1.232-.21 1.957 0 1.528.306 2.697.92 3.51.614.811 1.452 1.217 2.516 1.217.367 0 .684-.03.95-.094.265-.063.497-.142.696-.239.198-.097.37-.203.514-.319.145-.116.283-.222.414-.319.13-.097.26-.176.391-.24.13-.062.278-.094.442-.094.31 0 .551.116.725.348l1.146 1.45a6.828 6.828 0 0 1-2.864 1.994 7.57 7.57 0 0 1-1.573.392c-.532.072-1.059.108-1.58.108a6.704 6.704 0 0 1-2.61-.514 6.24 6.24 0 0 1-2.161-1.501c-.619-.657-1.11-1.465-1.472-2.422-.362-.957-.544-2.049-.544-3.277 0-1.092.16-2.107.479-3.045a6.917 6.917 0 0 1 1.406-2.436c.619-.686 1.385-1.225 2.299-1.616.913-.392 1.97-.588 3.168-.588 1.14 0 2.141.184 3.001.551a7.22 7.22 0 0 1 2.32 1.595l-1.044 1.421zm9.933-3.567c1.121 0 2.141.18 3.06.537a6.72 6.72 0 0 1 2.363 1.53c.657.662 1.165 1.467 1.522 2.414.358.947.537 2.015.537 3.204 0 1.19-.179 2.26-.537 3.212-.357.952-.865 1.762-1.522 2.429a6.671 6.671 0 0 1-2.364 1.537c-.918.358-1.938.536-3.06.536-1.13 0-2.157-.178-3.08-.536a6.658 6.658 0 0 1-2.371-1.537c-.658-.667-1.167-1.477-1.53-2.429-.362-.952-.544-2.023-.544-3.212s.182-2.257.544-3.204c.363-.947.872-1.752 1.53-2.414a6.707 6.707 0 0 1 2.37-1.53c.924-.358 1.95-.537 3.082-.537zm0 12.398c1.14 0 1.986-.394 2.537-1.182.551-.788.827-1.96.827-3.516 0-1.547-.276-2.714-.827-3.502-.55-.788-1.397-1.182-2.537-1.182-1.17 0-2.03.394-2.581 1.182-.551.788-.827 1.955-.827 3.502 0 1.556.276 2.728.827 3.516.55.788 1.411 1.182 2.58 1.182zm10.005 2.784v-14.95h2.465c.502 0 .836.232 1 .696l.232.972c.261-.27.53-.522.805-.754.276-.232.573-.433.892-.602.319-.169.664-.302 1.037-.399a4.806 4.806 0 0 1 1.21-.145c.919 0 1.677.245 2.277.733.6.488 1.053 1.138 1.363 1.95a4.622 4.622 0 0 1 2.052-2.059 5.54 5.54 0 0 1 1.334-.471c.468-.102.94-.153 1.413-.153.841 0 1.586.126 2.233.377a4.206 4.206 0 0 1 1.632 1.11c.44.488.775 1.085 1.007 1.79.232.706.348 1.508.348 2.407v9.498h-4.002v-9.498c0-1.75-.749-2.624-2.247-2.624-.339 0-.65.056-.935.167a2.123 2.123 0 0 0-.754.5 2.296 2.296 0 0 0-.508.826c-.12.33-.181.706-.181 1.131v9.498h-4.002v-9.498c0-.947-.186-1.621-.558-2.022-.373-.401-.921-.602-1.646-.602-.464 0-.902.109-1.312.326-.411.218-.796.52-1.153.906v10.89h-4.002z"/>
        </g>
    </g>
</svg>
