<?xml version="1.0" encoding="UTF-8"?>
<svg width="285px" height="289px" viewBox="0 0 285 289" version="1.1" xmlns="http://www.w3.org/2000/svg" xmlns:xlink="http://www.w3.org/1999/xlink">
    <!-- Generator: Sketch 49 (51002) - http://www.bohemiancoding.com/sketch -->
    <title>Group 6</title>
    <desc>Created with Sketch.</desc>
    <defs>
        <path d="M105.929503,278 L102.760334,276.593272 C101.635484,276.093446 74.9481784,264.078752 49.7585256,238.238256 C34.4027506,223.387172 23.6419478,211.499289 15.897464,200.832977 C5.14479517,186.023376 -0.0554743623,173.161137 0.00044615856,161.512374 L0.00044615856,31.7854491 L6.11103398,30.3908623 C39.3156225,22.8138885 74.8458269,10.6406804 103.394778,0.859686029 L105.904762,0 L108.414746,0.859686029 C136.965392,10.6413549 172.49763,22.814563 205.69849,30.3908623 L211.809078,31.7854491 L211.809078,161.512037 C211.864998,173.0178 206.661679,185.792687 195.904265,200.564177 C185.768078,214.482389 171.753039,228.561477 162.059132,237.968445 C136.883036,263.873696 110.215387,276.067814 109.091215,276.574722 L105.929503,278 Z M15.1295804,44.1781091 L15.1295804,161.243771 C15.0267248,180.424708 39.0807324,206.175332 60.048056,226.466103 L60.2168881,226.634617 C78.4490639,245.380451 97.7527653,256.294091 105.186791,260.108911 C112.636381,256.225 132.036848,245.122287 150.207784,226.383194 L150.374925,226.215691 C171.346308,205.850437 195.406068,180.060718 195.304566,161.244108 L195.304566,44.1781091 C164.179233,36.6371078 131.876475,25.6547136 105.216904,16.5148515 C78.5590247,25.6543766 46.2576194,36.6364337 15.1295804,44.1781091 Z" id="path-1"></path>
        <filter x="-2.4%" y="-1.8%" width="104.7%" height="106.1%" filterUnits="objectBoundingBox" id="filter-2">
            <feMorphology radius="1.5" operator="dilate" in="SourceAlpha" result="shadowSpreadOuter1"></feMorphology>
            <feOffset dx="0" dy="7" in="shadowSpreadOuter1" result="shadowOffsetOuter1"></feOffset>
            <feComposite in="shadowOffsetOuter1" in2="SourceAlpha" operator="out" result="shadowOffsetOuter1"></feComposite>
            <feColorMatrix values="0 0 0 0 0   0 0 0 0 0   0 0 0 0 0  0 0 0 0.05 0" type="matrix" in="shadowOffsetOuter1"></feColorMatrix>
        </filter>
    </defs>
    <g id="new" stroke="none" stroke-width="1" fill="none" fill-rule="evenodd">
        <g id="Transfer-Domains" transform="translate(-914.000000, -1461.000000)">
            <g id="Group-6" transform="translate(914.000000, 1463.000000)">
                <g id="Group-50" transform="translate(35.000000, 0.000000)">
                    <g id="Combined-Shape">
                        <use fill="black" fill-opacity="1" filter="url(#filter-2)" xlink:href="#path-1"></use>
                        <use stroke="#414042" stroke-width="3" fill="#FFFFFF" fill-rule="evenodd" xlink:href="#path-1"></use>
                    </g>
                    <path d="M16.00031,161.232463 C15.9432448,171.874229 23.7698407,184.836634 34.3305584,197.734188 C42.8046949,208.08345 53.039274,218.390956 62.3737275,227.424214 C80.7747354,246.338562 98.0790911,255.609872 105.513117,259.424692 C110.908592,256.611713 123.681257,249.555019 136.650071,238.453243 C141.587438,234.226677 145.672213,228.941318 150.682582,223.774287 C171.821106,203.241531 195.291027,180.049073 195.189525,161.232463 L195.189525,44.3266449 C164.064192,36.7856436 132.29971,26.1398621 105.640139,17 C78.9822603,26.1395251 47.1283491,36.7849695 16.00031,44.3266449 L16.00031,161.232463 Z" id="Fill-5" fill="#FED445"></path>
                    <path d="M205.722048,30.3911627 C172.649512,22.8148726 137.25391,10.641342 108.813326,0.86002225 L106.313017,0 L105.083795,0.422928589 L105.083795,277.441154 L106.338,278 L109.486849,276.574387 C110.607363,276.067479 137.171535,263.873376 162.250917,237.968494 C171.907792,228.561199 185.868465,214.482467 195.965916,200.563934 C206.681861,185.792462 211.864785,173.017927 211.80908,161.511841 L211.80908,31.7857478 L205.722048,30.3911627 Z" id="Fill-17" fill="#0D0D0D" opacity="0.049999997"></path>
                    <path d="M172.833496,60.739108 L182.167013,60.739108 L182.167013,52 L172.833496,52 L172.833496,60.739108 Z M39,88.6064403 L55.8019948,88.6064403 L55.8019948,72.8748875 L39,72.8748875 L39,88.6064403 Z M149.776818,88.6020962 L162.44981,88.6020962 L162.44981,76.7378187 L149.776818,76.7378187 L149.776818,88.6020962 Z M60.4378018,111.558862 L60.4378018,138.576935 L89.2923156,138.576935 L89.2926776,111.558862 L60.4378018,111.558862 Z M117.613237,140.359437 L144.268222,140.359437 L144.268222,115.401521 L117.613237,115.401521 L117.613237,140.359437 Z M89.0237095,172.479215 L122.221532,172.479215 L122.221532,141.398023 L89.0237095,141.398023 L89.0237095,172.479215 Z" id="Page-1" stroke="#D61F26" fill="#D61F26"></path>
                </g>
                <g id="guaranteed_shield-(1)" transform="translate(0.000000, 184.000000)">
                    <g id="Group">
                        <g transform="translate(234.669553, 10.579365)" fill-rule="nonzero" id="Shape">
                            <polygon fill="#BD0F12" points="0.737349687 57.9103896 50.011544 57.9103896 42.2711533 28.9551948 50.011544 0.378499278 0.737349687 0.378499278"></polygon>
                            <polygon fill="#A00707" points="0.548559671 57.9103896 23.2033617 47.1231602 23.2033617 20.8174603 0.548559671 37.0929293"></polygon>
                        </g>
                        <g transform="translate(0.000000, 10.579365)" fill-rule="nonzero" id="Shape">
                            <polygon fill="#BD0F12" points="49.2741943 57.9103896 0 57.9103896 7.74039068 28.9551948 0 0.378499278 49.2741943 0.378499278"></polygon>
                            <polygon fill="#A00707" points="49.4629843 57.9103896 26.8081824 47.1231602 26.8081824 20.8174603 49.4629843 37.0929293"></polygon>
                        </g>
                        <rect id="Rectangle-path" fill="#D71920" fill-rule="nonzero" x="27" y="0" width="230.822511" height="57.7056277"></rect>
                        <path d="M57.3192685,27.0235 L64.0422685,27.0235 L64.0422685,35.11 C63.0432635,35.8390036 61.9790242,36.3722483 60.8495185,36.70975 C59.7200129,37.0472517 58.5252748,37.216 57.2652685,37.216 C55.6542605,37.216 54.196275,36.9662525 52.8912685,36.46675 C51.586262,35.9672475 50.4702732,35.2720045 49.5432685,34.381 C48.6162639,33.4899955 47.900771,32.4325061 47.3967685,31.2085 C46.892766,29.9844939 46.6407685,28.6480072 46.6407685,27.199 C46.6407685,25.7319927 46.8815161,24.3865061 47.3630185,23.1625 C47.8445209,21.9384939 48.5307641,20.8855044 49.4217685,20.0035 C50.312773,19.1214956 51.3905122,18.4330025 52.6550185,17.938 C53.9195248,17.4429975 55.3347607,17.1955 56.9007685,17.1955 C57.7107726,17.1955 58.466765,17.2607493 59.1687685,17.39125 C59.870772,17.5217507 60.5187655,17.7017489 61.1127685,17.93125 C61.7067715,18.1607511 62.251266,18.4329984 62.7462685,18.748 C63.241271,19.0630016 63.6912665,19.4094981 64.0962685,19.7875 L62.9217685,21.5965 C62.7417676,21.8845014 62.50777,22.0599997 62.2197685,22.123 C61.9317671,22.1860003 61.6167702,22.114001 61.2747685,21.907 C60.9507669,21.708999 60.6335201,21.5312508 60.3230185,21.37375 C60.012517,21.2162492 59.6817703,21.0790006 59.3307685,20.962 C58.9797668,20.8449994 58.5972706,20.7550003 58.1832685,20.692 C57.7692664,20.6289997 57.2922712,20.5975 56.7522685,20.5975 C55.843264,20.5975 55.0197722,20.7549984 54.2817685,21.07 C53.5437648,21.3850016 52.9160211,21.8304971 52.3985185,22.4065 C51.8810159,22.9825029 51.4827699,23.6754959 51.2037685,24.4855 C50.9247671,25.295504 50.7852685,26.199995 50.7852685,27.199 C50.7852685,28.2790054 50.938267,29.2442457 51.2442685,30.09475 C51.55027,30.9452543 51.9822657,31.6629971 52.5402685,32.248 C53.0982713,32.8330029 53.7665146,33.2784985 54.5450185,33.5845 C55.3235224,33.8905015 56.1897637,34.0435 57.1437685,34.0435 C57.7917718,34.0435 58.370016,33.9782507 58.8785185,33.84775 C59.3870211,33.7172493 59.8842661,33.5395011 60.3702685,33.3145 L60.3702685,30.0205 L58.1562685,30.0205 C57.8952672,30.0205 57.6905193,29.9507507 57.5420185,29.81125 C57.3935178,29.6717493 57.3192685,29.4940011 57.3192685,29.278 L57.3192685,27.0235 Z M76.3929064,33.76 C77.0499097,33.76 77.6394038,33.6497511 78.1614064,33.42925 C78.683409,33.2087489 79.1244046,32.896002 79.4844064,32.491 C79.8444082,32.085998 80.1189054,31.5955029 80.3079064,31.0195 C80.4969073,30.4434971 80.5914064,29.7955036 80.5914064,29.0755 L80.5914064,17.4115 L84.6414064,17.4115 L84.6414064,29.0755 C84.6414064,30.2635059 84.4501583,31.354745 84.0676564,32.34925 C83.6851545,33.343755 83.1384099,34.2009964 82.4274064,34.921 C81.7164028,35.6410036 80.8524115,36.203498 79.8354064,36.6085 C78.8184013,37.013502 77.6709128,37.216 76.3929064,37.216 C75.1149,37.216 73.9651615,37.013502 72.9436564,36.6085 C71.9221513,36.203498 71.0559099,35.6410036 70.3449064,34.921 C69.6339028,34.2009964 69.0871583,33.343755 68.7046564,32.34925 C68.3221545,31.354745 68.1309064,30.2635059 68.1309064,29.0755 L68.1309064,17.4115 L72.1809064,17.4115 L72.1809064,29.0755 C72.1809064,29.7955036 72.2754054,30.4434971 72.4644064,31.0195 C72.6534073,31.5955029 72.9279046,32.085998 73.2879064,32.491 C73.6479082,32.896002 74.0889038,33.2087489 74.6109064,33.42925 C75.132909,33.6497511 75.726903,33.76 76.3929064,33.76 Z M99.3680442,29.5615 L97.2485442,23.5675 C97.1225436,23.2524984 96.9897949,22.8835021 96.8502942,22.4605 C96.7107935,22.0374979 96.5780449,21.5785025 96.4520442,21.0835 C96.3260436,21.5875025 96.1932949,22.0532479 96.0537942,22.48075 C95.9142935,22.9082521 95.7815449,23.2794984 95.6555442,23.5945 L93.5495442,29.5615 L99.3680442,29.5615 Z M106.172044,37 L103.026544,37 C102.675542,37 102.389795,36.9167508 102.169294,36.75025 C101.948793,36.5837492 101.784545,36.3700013 101.676544,36.109 L100.353544,32.3695 L92.5505442,32.3695 L91.2275442,36.109 C91.1375438,36.3340011 90.9800454,36.5387491 90.7550442,36.72325 C90.5300431,36.9077509 90.2465459,37 89.9045442,37 L86.7320442,37 L94.3865442,17.4115 L98.5310442,17.4115 L106.172044,37 Z M115.134182,26.686 C115.791185,26.686 116.35818,26.6027508 116.835182,26.43625 C117.312184,26.2697492 117.703681,26.0402515 118.009682,25.74775 C118.315684,25.4552485 118.540681,25.111002 118.684682,24.715 C118.828683,24.318998 118.900682,23.8870023 118.900682,23.419 C118.900682,22.4919954 118.592435,21.7720026 117.975932,21.259 C117.359429,20.7459974 116.421188,20.4895 115.161182,20.4895 L113.055182,20.4895 L113.055182,26.686 L115.134182,26.686 Z M124.624682,37 L120.966182,37 C120.282179,37 119.787184,36.7390026 119.481182,36.217 L115.755182,30.2095 C115.602181,29.9754988 115.433433,29.8045005 115.248932,29.6965 C115.064431,29.5884995 114.792184,29.5345 114.432182,29.5345 L113.055182,29.5345 L113.055182,37 L109.005182,37 L109.005182,17.4115 L115.161182,17.4115 C116.529189,17.4115 117.699177,17.5532486 118.671182,17.83675 C119.643187,18.1202514 120.439679,18.5139975 121.060682,19.018 C121.681685,19.5220025 122.136181,20.1227465 122.424182,20.82025 C122.712184,21.5177535 122.856182,22.2849958 122.856182,23.122 C122.856182,23.7700032 122.763933,24.3842471 122.579432,24.96475 C122.394931,25.5452529 122.127184,26.0739976 121.776182,26.551 C121.42518,27.0280024 120.993185,27.4509982 120.480182,27.82 C119.96718,28.1890018 119.382185,28.4859989 118.725182,28.711 C118.986183,28.8550007 119.229181,29.028249 119.454182,29.23075 C119.679183,29.433251 119.881681,29.6739986 120.061682,29.953 L124.624682,37 Z M137.90682,29.5615 L135.78732,23.5675 C135.661319,23.2524984 135.528571,22.8835021 135.38907,22.4605 C135.249569,22.0374979 135.116821,21.5785025 134.99082,21.0835 C134.864819,21.5875025 134.732071,22.0532479 134.59257,22.48075 C134.453069,22.9082521 134.320321,23.2794984 134.19432,23.5945 L132.08832,29.5615 L137.90682,29.5615 Z M144.71082,37 L141.56532,37 C141.214318,37 140.928571,36.9167508 140.70807,36.75025 C140.487569,36.5837492 140.32332,36.3700013 140.21532,36.109 L138.89232,32.3695 L131.08932,32.3695 L129.76632,36.109 C129.676319,36.3340011 129.518821,36.5387491 129.29382,36.72325 C129.068819,36.9077509 128.785322,37 128.44332,37 L125.27082,37 L132.92532,17.4115 L137.06982,17.4115 L144.71082,37 Z M164.324458,17.4115 L164.324458,37 L162.231958,37 C161.916956,37 161.651459,36.9482505 161.435458,36.84475 C161.219457,36.7412495 161.007959,36.5635013 160.800958,36.3115 L151.040458,23.8915 C151.067458,24.2065016 151.087708,24.5169985 151.101208,24.823 C151.114708,25.1290015 151.121458,25.4124987 151.121458,25.6735 L151.121458,37 L147.543958,37 L147.543958,17.4115 L149.676958,17.4115 C149.847959,17.4115 149.994207,17.4182499 150.115708,17.43175 C150.237208,17.4452501 150.347457,17.4767498 150.446458,17.52625 C150.545458,17.5757502 150.639957,17.6409996 150.729958,17.722 C150.819958,17.8030004 150.918957,17.9109993 151.026958,18.046 L160.854958,30.52 C160.818958,30.1779983 160.791958,29.8472516 160.773958,29.52775 C160.755958,29.2082484 160.746958,28.9045014 160.746958,28.6165 L160.746958,17.4115 L164.324458,17.4115 Z M183.317096,20.6785 L177.593096,20.6785 L177.593096,37 L173.529596,37 L173.529596,20.6785 L167.805596,20.6785 L167.805596,17.4115 L183.317096,17.4115 L183.317096,20.6785 Z M190.861734,20.584 L190.861734,25.6195 L197.395734,25.6195 L197.395734,28.684 L190.861734,28.684 L190.861734,33.8275 L199.258734,33.8275 L199.258734,37 L186.784734,37 L186.784734,17.4115 L199.258734,17.4115 L199.258734,20.584 L190.861734,20.584 Z M207.383871,20.584 L207.383871,25.6195 L213.917871,25.6195 L213.917871,28.684 L207.383871,28.684 L207.383871,33.8275 L215.780871,33.8275 L215.780871,37 L203.306871,37 L203.306871,17.4115 L215.780871,17.4115 L215.780871,20.584 L207.383871,20.584 Z M237.392509,27.199 C237.392509,28.6300072 237.151762,29.946244 236.670259,31.14775 C236.188757,32.349256 235.509264,33.3819957 234.631759,34.246 C233.754255,35.1100043 232.699015,35.7849976 231.466009,36.271 C230.233003,36.7570024 228.865017,37 227.362009,37 L219.829009,37 L219.829009,17.4115 L227.362009,17.4115 C228.865017,17.4115 230.233003,17.6544976 231.466009,18.1405 C232.699015,18.6265024 233.754255,19.3037457 234.631759,20.17225 C235.509264,21.0407543 236.188757,22.073494 236.670259,23.2705 C237.151762,24.467506 237.392509,25.7769929 237.392509,27.199 Z M233.234509,27.199 C233.234509,26.1729949 233.099511,25.2505041 232.829509,24.4315 C232.559508,23.6124959 232.172512,22.9195028 231.668509,22.3525 C231.164507,21.7854972 230.550263,21.3490015 229.825759,21.043 C229.101256,20.7369985 228.280014,20.584 227.362009,20.584 L223.906009,20.584 L223.906009,33.8275 L227.362009,33.8275 C228.280014,33.8275 229.101256,33.6767515 229.825759,33.37525 C230.550263,33.0737485 231.164507,32.6372529 231.668509,32.06575 C232.172512,31.4942471 232.559508,30.7990041 232.829509,29.98 C233.099511,29.1609959 233.234509,28.2340052 233.234509,27.199 Z" id="GUARANTEED" fill="#FFFFFF"></path>
                    </g>
                </g>
            </g>
        </g>
    </g>
</svg>